<svg t="1626104071682" class="icon" viewBox="0 0 1024 1024" version="1.1" xmlns="http://www.w3.org/2000/svg" p-id="3823" width="200" height="200"><path d="M889.00353 1024H134.73602A124.035218 124.035218 0 0 1 13.011364 897.969295V126.03123A124.035218 124.035218 0 0 1 134.73602 0.000525h571.785553a37.809211 37.809211 0 0 1 7.876919 0.787692 23.39445 23.39445 0 0 1 4.306049 1.31282 13.889634 13.889634 0 0 1 3.308306 1.050256 31.507676 31.507676 0 0 1 4.568613 2.363075l2.625639 1.575384a48.836898 48.836898 0 0 1 6.222766 4.988716l263.745506 269.128067a42.220286 42.220286 0 0 1 11.65784 33.08306V897.969295a124.035218 124.035218 0 0 1-121.829681 126.030705zM746.98268 141.522504v86.383545a41.065005 41.065005 0 0 0 40.566133 41.222543h84.598111z m182.586983 210.576302H787.575069a123.405065 123.405065 0 0 1-121.724655-124.192757V82.970739H134.73602A42.010235 42.010235 0 0 0 94.169887 126.03123v771.938065a42.010235 42.010235 0 0 0 40.566133 43.323055h754.26751a42.010235 42.010235 0 0 0 40.566133-43.323055V352.098806z m-255.395971 444.258234H282.743328a41.353825 41.353825 0 0 1 0-82.70765h391.430364a41.353825 41.353825 0 0 1 0 82.70765z m-62.411455-224.492193H282.743328a41.485107 41.485107 0 0 1 0-82.970214H611.657211a41.485107 41.485107 0 0 1 0 82.970214zM455.694214 336.082404h-172.950886a41.353825 41.353825 0 0 1 0-82.70765h172.950886a41.353825 41.353825 0 0 1 0 82.70765z" p-id="3824"></path></svg>