<svg t="1626360674364" class="icon" viewBox="0 0 1024 1024" version="1.1" xmlns="http://www.w3.org/2000/svg" p-id="10155" width="200" height="200"><path d="M724.1216 435.2c63.6416 0 116.1216 47.7184 120.4224 108.5952l0.256 8.0384v227.5328c0 61.952-49.8688 112.2816-112.4352 116.3776l-8.2432 0.256H248.6784c-63.6416 0-116.1216-47.7184-120.4224-108.5952l-0.256-8.0384v-227.5328C128 487.168 182.272 435.2 248.6784 435.2a25.6 25.6 0 0 1 0 51.2c-36.1984 0-65.5872 25.9584-69.12 58.7776l-0.3584 6.656v227.5328c0 33.6384 27.136 61.696 62.3616 65.0752l7.168 0.3584h475.392c36.1984 0 65.5872-25.9584 69.12-58.7776l0.3584-6.656v-227.5328c0-33.6384-27.136-61.696-62.3616-65.0752l-7.168-0.3584H496.5888a25.6 25.6 0 0 1-4.608-50.7904l4.608-0.4096h227.584z m-147.456-249.6l8.3456 0.3072c60.3136 4.096 108.3392 52.6336 108.3392 112.4352v35.84l-0.4096 4.608a25.6 25.6 0 0 1-50.7904-4.608v-35.84l-0.3584-6.2464c-3.328-30.8736-30.976-55.296-65.0752-55.296H451.5328l-6.7072 0.3072c-33.1776 3.1744-58.6752 29.5936-58.6752 61.2352v324.9152l0.3072 6.2464c3.328 30.8736 30.976 55.296 65.0752 55.296h125.184l6.7072-0.3072c33.1776-3.1744 58.7264-29.5936 58.7264-61.2352v-43.3664l0.4096-4.608a25.6 25.6 0 0 1 50.7904 4.608v43.3664l-0.3072 8.0384c-4.3008 58.7264-54.9376 104.704-116.3264 104.704H451.5328l-8.2944-0.3072c-60.3136-4.096-108.288-52.6336-108.288-112.4352V298.3424l0.256-8.0384c4.3008-58.7264 54.9888-104.704 116.3264-104.704h125.184z" p-id="10156"></path></svg>